<svg id="visual" viewBox="0 0 960 540" width="960" height="540" xmlns="http://www.w3.org/2000/svg" xmlns:xlink="http://www.w3.org/1999/xlink" version="1.1"><rect x="0" y="0" width="960" height="540" fill="#171717"></rect><path d="M0 346L20 343.7C40 341.3 80 336.7 120 332.2C160 327.7 200 323.3 240 316.3C280 309.3 320 299.7 360 298.5C400 297.3 440 304.7 480 308C520 311.3 560 310.7 600 314.2C640 317.7 680 325.3 720 330.7C760 336 800 339 840 336.5C880 334 920 326 940 322L960 318L960 541L940 541C920 541 880 541 840 541C800 541 760 541 720 541C680 541 640 541 600 541C560 541 520 541 480 541C440 541 400 541 360 541C320 541 280 541 240 541C200 541 160 541 120 541C80 541 40 541 20 541L0 541Z" fill="#14b8a6"></path><path d="M0 387L20 383.7C40 380.3 80 373.7 120 371.3C160 369 200 371 240 374.3C280 377.7 320 382.3 360 379.2C400 376 440 365 480 360.5C520 356 560 358 600 364C640 370 680 380 720 378.2C760 376.3 800 362.7 840 358.8C880 355 920 361 940 364L960 367L960 541L940 541C920 541 880 541 840 541C800 541 760 541 720 541C680 541 640 541 600 541C560 541 520 541 480 541C440 541 400 541 360 541C320 541 280 541 240 541C200 541 160 541 120 541C80 541 40 541 20 541L0 541Z" fill="#0099aa"></path><path d="M0 429L20 430.2C40 431.3 80 433.7 120 432.8C160 432 200 428 240 421.8C280 415.7 320 407.3 360 404.8C400 402.3 440 405.7 480 405.7C520 405.7 560 402.3 600 404.7C640 407 680 415 720 421.5C760 428 800 433 840 431C880 429 920 420 940 415.5L960 411L960 541L940 541C920 541 880 541 840 541C800 541 760 541 720 541C680 541 640 541 600 541C560 541 520 541 480 541C440 541 400 541 360 541C320 541 280 541 240 541C200 541 160 541 120 541C80 541 40 541 20 541L0 541Z" fill="#00799b"></path><path d="M0 473L20 470.2C40 467.3 80 461.7 120 463.2C160 464.7 200 473.3 240 474.8C280 476.3 320 470.7 360 472.3C400 474 440 483 480 486.5C520 490 560 488 600 482.5C640 477 680 468 720 468.2C760 468.3 800 477.7 840 480.3C880 483 920 479 940 477L960 475L960 541L940 541C920 541 880 541 840 541C800 541 760 541 720 541C680 541 640 541 600 541C560 541 520 541 480 541C440 541 400 541 360 541C320 541 280 541 240 541C200 541 160 541 120 541C80 541 40 541 20 541L0 541Z" fill="#075985"></path></svg>